# xmcd
#
# Track frame offsets:
#	150
#	14143
#	26613
#	42630
#	58890
#	72510
#	90395
#	103483
#	116565
#	131708
#	145870
#	160033
#
# Disc length: 2287 seconds
#
# Revision: 0
# Processed by: cddbd v1.5.1PL0 Copyright (c) Steve Scherf et al.
# Submitted via: dBpowerAMP V4.0
#
DISCID=b408ed0c
DTITLE=Tanya Tucker - Greatest Hits (MCA)
DYEAR=1978
DGENRE=Country
TTITLE0=Here's Some Love
TTITLE1=Ridin' Rainbows
TTITLE2=Pride Of Franklin County
TTITLE3=Dancing The Night Away
TTITLE4=Wait 'Til Daddy Finds Out
TTITLE5=Let's Keep It That Way
TTITLE6=San Antonio Stroll
TTITLE7=Don't Believe My Heart Can Stand Another You
TTITLE8=Short Cut
TTITLE9=You've Got Me To Hold On To
TTITLE10=Lizzie And The Rain Man
TTITLE11=It's A Cowboy Lovin' Night
EXTD=
EXTT0=
EXTT1=
EXTT2=
EXTT3=
EXTT4=
EXTT5=
EXTT6=
EXTT7=
EXTT8=
EXTT9=
EXTT10=
EXTT11=
PLAYORDER=
